<svg width="32" height="32" viewBox="0 0 32 32" fill="none" xmlns="http://www.w3.org/2000/svg">
<g id="image-composition">
<path id="Vector" d="M9.43366 5.17871C13.7166 6.4464 18.2835 6.4464 22.5664 5.17871C26.0227 4.1557 27.7507 3.64418 28.542 4.27895C29.3334 4.91372 29.3334 6.54363 29.3334 9.80342V22.1965C29.3334 25.4564 29.3334 27.0863 28.542 27.7211C27.7507 28.3559 26.0226 27.8443 22.5664 26.8213C18.2835 25.5536 13.7166 25.5536 9.43366 26.8213C5.97742 27.8443 4.2493 28.3559 3.45799 27.7211C2.66669 27.0863 2.66669 25.4564 2.66669 22.1965V9.80342C2.66669 6.54363 2.66669 4.91372 3.45799 4.27895C4.2493 3.64418 5.97742 4.1557 9.43366 5.17871Z" stroke="#040F0F" stroke-width="1.5"/>
<path id="Vector_2" d="M9.33331 26.6667C14.5958 21.1235 20.5098 13.7722 29.3333 19.2858" stroke="#040F0F" stroke-width="1.5"/>
<path id="Vector_3" d="M12 11.3333C12 12.4378 11.1046 13.3333 10 13.3333C8.89543 13.3333 8 12.4378 8 11.3333C8 10.2287 8.89543 9.33325 10 9.33325C11.1046 9.33325 12 10.2287 12 11.3333Z" stroke="#040F0F" stroke-width="1.5" stroke-linecap="round" stroke-linejoin="round"/>
</g>
</svg>
