<svg width="61" height="71" viewBox="0 0 61 71" fill="none" xmlns="http://www.w3.org/2000/svg">
<g filter="url(#filter0_f_344_16626)">
<ellipse cx="30.5" cy="64" rx="8.5" ry="3" fill="black" fill-opacity="0.2"/>
</g>
<g filter="url(#filter1_d_344_16626)">
<path fill-rule="evenodd" clip-rule="evenodd" d="M30.5 4C44.5833 4 56 15.4167 56 29.5C56 40.2983 49.2881 49.5289 39.8087 53.2475L31.9521 63.9865C31.7883 64.2113 31.5709 64.3948 31.3181 64.5215C31.0653 64.6481 30.7846 64.7143 30.4997 64.7143C30.2149 64.7143 29.9342 64.6481 29.6814 64.5215C29.4286 64.3948 29.2111 64.2113 29.0473 63.9865L21.1905 53.2472C11.7115 49.5284 5 40.298 5 29.5C5 15.4167 16.4167 4 30.5 4Z" fill="#2BA84A"/>
</g>
<path d="M23.8626 16.9842L21.4023 19.8477C16.625 25.4112 14 32.4825 14 39.7941C14 41.2172 15.1624 42.3691 16.594 42.3691H22.1423C25.9045 42.3691 28.9537 39.3422 28.9537 35.6075V33.6729C28.7968 33.8056 28.6108 33.9094 28.4035 33.9767C27.3942 34.3075 26.4527 34.471 25.5848 34.471C24.6607 34.471 23.818 34.2844 23.0683 33.9094C20.8153 32.7882 20.2535 30.4036 20.2322 30.3036L20.1566 29.9651L20.4976 29.8017C22.6828 28.7516 24.591 28.4863 26.1718 29.0093C27.3284 29.392 28.2795 30.194 28.9557 31.3478V29.7286C28.667 29.6497 28.4016 29.5074 28.1885 29.3113C26.7026 27.9459 25.9878 26.4343 26.1234 24.9401C26.2764 23.2573 27.4891 21.6515 29.7306 20.1669C29.9437 20.0265 30.2187 20.0265 30.4318 20.165C30.5365 20.2342 33.0007 21.8766 33.2138 24.4554C33.2854 25.3151 33.0995 26.167 32.6597 27.0074C32.2471 27.7959 31.6097 28.5709 30.7515 29.3305C30.6391 29.4305 30.5151 29.5132 30.3795 29.5824V31.9075C31.1544 30.8478 32.1541 30.0978 33.3319 29.7074C35.2421 29.0747 37.5474 29.3978 40.186 30.6651L40.5986 30.8632L40.5056 31.2728C40.4785 31.394 39.8004 34.2748 37.0786 35.6306C36.1719 36.0825 35.1549 36.3094 34.0371 36.3094C32.989 36.3094 31.8519 36.1094 30.6314 35.7114C30.5442 35.6825 30.459 35.6479 30.3776 35.6094C30.3776 39.3441 33.4269 42.3711 37.189 42.3711H45.7188C46.2883 42.3711 46.7513 41.9114 46.7513 41.346C46.7513 33.0344 43.7679 24.9939 38.3359 18.6688L36.8887 16.9842C33.4733 13.0053 27.2799 13.0053 23.8626 16.9842Z" fill="white"/>
<path d="M29.4315 28.7457C29.6136 28.7591 29.7899 28.6995 29.9197 28.586C31.4346 27.2437 32.1476 25.8802 32.0352 24.5341C31.9035 22.9475 30.6694 21.7552 30.0631 21.2609C28.924 22.0667 28.1316 22.8937 27.6919 23.7321C27.4671 24.1591 27.3354 24.5898 27.2967 25.0225C27.1882 26.2072 27.7887 27.4379 29.0324 28.5783C29.139 28.6764 29.2804 28.736 29.4315 28.7457Z" fill="white"/>
<path d="M31.0687 34.6534C33.2249 35.3573 35.0381 35.3554 36.4601 34.6477C38.1358 33.813 38.8758 32.2034 39.1413 31.4534C37.7426 30.8322 36.4795 30.5207 35.3636 30.5207C34.794 30.5207 34.2632 30.6014 33.7731 30.7649C32.4286 31.2091 31.3573 32.288 30.6754 33.8823C30.6173 34.0169 30.6173 34.1669 30.6754 34.3034C30.7432 34.4669 30.8866 34.5938 31.0687 34.6534Z" fill="white"/>
<path d="M25.8054 29.8822C25.3986 29.7476 24.9608 29.6803 24.4881 29.6803C23.564 29.6803 22.5179 29.938 21.3613 30.4514C21.5802 31.0726 22.1944 32.4053 23.5814 33.0957C24.7593 33.6823 26.2607 33.6842 28.0449 33.1015C28.196 33.0515 28.3161 32.9457 28.3723 32.8111C28.4207 32.6976 28.4188 32.5746 28.3723 32.463C27.8047 31.1418 26.9174 30.2495 25.8054 29.8822Z" fill="white"/>
<defs>
<filter id="filter0_f_344_16626" x="20" y="59" width="21" height="10" filterUnits="userSpaceOnUse" color-interpolation-filters="sRGB">
<feFlood flood-opacity="0" result="BackgroundImageFix"/>
<feBlend mode="normal" in="SourceGraphic" in2="BackgroundImageFix" result="shape"/>
<feGaussianBlur stdDeviation="1" result="effect1_foregroundBlur_344_16626"/>
</filter>
<filter id="filter1_d_344_16626" x="0" y="0" width="61" height="70.7143" filterUnits="userSpaceOnUse" color-interpolation-filters="sRGB">
<feFlood flood-opacity="0" result="BackgroundImageFix"/>
<feColorMatrix in="SourceAlpha" type="matrix" values="0 0 0 0 0 0 0 0 0 0 0 0 0 0 0 0 0 0 127 0" result="hardAlpha"/>
<feOffset dy="1"/>
<feGaussianBlur stdDeviation="2.5"/>
<feComposite in2="hardAlpha" operator="out"/>
<feColorMatrix type="matrix" values="0 0 0 0 0 0 0 0 0 0 0 0 0 0 0 0 0 0 0.1 0"/>
<feBlend mode="normal" in2="BackgroundImageFix" result="effect1_dropShadow_344_16626"/>
<feBlend mode="normal" in="SourceGraphic" in2="effect1_dropShadow_344_16626" result="shape"/>
</filter>
</defs>
</svg>
