<svg width="163" height="163" viewBox="0 0 163 163" fill="none" xmlns="http://www.w3.org/2000/svg">
<g id="Progress wheel">
<circle id="groove" cx="81.7135" cy="81.8433" r="81.1228" fill="#5F5AA2"/>
<path id="progress" opacity="0.75" d="M32.4127 146.266C42.6668 154.114 54.6459 159.4 67.3542 161.685C80.0624 163.971 93.1327 163.19 105.478 159.407C117.824 155.624 129.088 148.95 138.335 139.937C147.582 130.925 154.544 119.836 158.642 107.591C162.74 95.3465 163.856 82.3007 161.898 69.5379C159.939 56.7752 154.962 44.6644 147.381 34.2123C139.8 23.7601 129.833 15.2687 118.309 9.44387C106.785 3.61903 94.0378 0.629082 81.1261 0.722586L81.7135 81.8433L32.4127 146.266Z" fill="white"/>
<circle id="cover" cx="81.7132" cy="81.846" r="68.6424" fill="white"/>
</g>
</svg>
