<svg width="202" height="87" viewBox="0 0 202 87" fill="none" xmlns="http://www.w3.org/2000/svg">
<g id="Small line chart widget">
<path id="Line" d="M0.409302 84.0779C10.7083 84.5406 32.0086 81.1625 34.8175 63.9481C38.3285 42.43 52.3726 28.5473 61.5013 35.4887C70.63 42.43 71.3322 63.9481 87.483 63.9481C103.634 63.9481 121.891 29.2414 128.913 20.9119C135.935 12.5823 158.406 4.94678 174.557 44.5123C187.477 76.1648 196.793 70.658 199.836 63.9481" stroke="#8DE969" stroke-width="4.21325"/>
<g id="top dot">
<ellipse cx="145.766" cy="16.7432" rx="9.8309" ry="9.71784" fill="#8DE969"/>
<path d="M145.766 29.9721C153.096 29.9721 159.108 24.0875 159.108 16.7432C159.108 9.39895 153.096 3.51435 145.766 3.51435C138.436 3.51435 132.424 9.39895 132.424 16.7432C132.424 24.0875 138.436 29.9721 145.766 29.9721Z" stroke="#130E0A" stroke-opacity="0.1" stroke-width="7.02208"/>
</g>
<line id="vertical line" x1="146.468" y1="16.7424" x2="146.468" y2="84.7673" stroke="#8DE969" stroke-width="1.40442" stroke-dasharray="5.62 5.62"/>
</g>
</svg>
