<svg width="75" height="26" viewBox="0 0 75 26" fill="none" xmlns="http://www.w3.org/2000/svg">
<path d="M22.8597 13.0624C22.8597 19.6732 17.7324 25.052 11.4299 25.052C5.12733 25.052 0 19.6732 0 13.0624C0 6.45154 5.12733 1.07275 11.4299 1.07275C17.7324 1.07275 22.8597 6.45154 22.8597 13.0624ZM18.0491 13.0624C18.0491 9.0846 15.0799 5.84824 11.4299 5.84824C7.77978 5.84824 4.81065 9.0846 4.81065 13.0624C4.81065 17.0401 7.77978 20.2765 11.4299 20.2765C15.0799 20.2765 18.0491 17.0401 18.0491 13.0624Z" fill="#040F0F"/>
<path d="M37.8062 6.52956L25.5837 20.3618L37.8062 20.3999V25.1627L19.0762 25.1027V20.5053L32.0766 5.79361L19.0762 5.8027V1.04174L37.8062 1.02539V6.52956Z" fill="#040F0F"/>
<g clip-path="url(#clip0_439_1503)">
<path d="M45.4991 0C38.5958 0 33 5.59723 33 12.5C33 19.4046 38.5958 25 45.4991 25C52.4042 25 58 19.4046 58 12.5C58 5.59723 52.4042 0 45.4991 0ZM45.9806 16.3643L40.2856 20.4991C40.2838 20.4991 40.2838 20.4991 40.2838 20.4973C39.3316 19.2567 39.1513 16.8296 40.0187 14.8496C41.0232 12.5505 43.2665 10.4515 47.187 9.91056C43.2178 11.4595 40.7004 14.1229 40.814 18.0215C41.7229 14.3339 44.078 13.8632 47.068 12.7272C50.058 11.5894 50.7721 8.85928 49.7478 6.37442C46.922 8.94042 40.3703 6.81982 38.3632 16.2597C37.7212 11.0412 41.8707 5.58821 46.9706 4.60545C48.8227 4.24661 52.4132 4.65414 52.6891 8.3724C52.9867 12.372 48.5143 14.9686 45.9806 16.3643Z" fill="#2BA84A"/>
</g>
<path d="M74.5544 25.0737H74.4226L69.7419 25.0755V25.0719H68.7736L58.5866 8.65205L58.6013 25.0701L53.7906 25.0755L53.7705 1.00545L56.0202 1.00363L56.0221 1.00182H57.1021L58.583 1V1.00182H59.4909L69.7383 17.5161L69.7218 1.00545L74.5324 1.00182L74.5544 25.0737Z" fill="#040F0F"/>
<defs>
<clipPath id="clip0_439_1503">
<rect width="25" height="25" fill="white" transform="translate(33)"/>
</clipPath>
</defs>
</svg>
