<svg width="39" height="38" viewBox="0 0 39 38" fill="none" xmlns="http://www.w3.org/2000/svg">
<path d="M22.0976 1.20847C20.7352 -0.402823 18.2656 -0.402823 16.9024 1.20847L10.0922 9.26018C3.57856 16.9615 0 26.7494 0 36.8696C0 37.4938 0.502253 38 1.12144 38H11.4263C11.6382 38 11.697 37.7065 11.5016 37.6243C10.0372 37.0057 8.69527 36.1269 7.57697 34.987C7.5754 34.9862 7.5754 34.9862 7.57383 34.9847C5.90854 32.7912 5.59071 28.5071 7.10924 25.01C8.86949 20.9513 12.8004 17.247 19.6656 16.2915C12.7133 19.0252 8.30288 23.7286 8.503 30.6127C10.0969 24.1019 14.2216 23.2706 19.4584 21.263C24.6936 19.2546 25.9445 14.4358 24.1529 10.048C19.201 14.5797 7.72529 10.8351 4.21187 27.5025L4.2103 27.5057C3.08258 18.2904 10.3543 8.6598 19.2865 6.92353C22.5308 6.2923 28.8192 7.00895 29.3026 13.5767C29.8229 20.6357 21.9901 25.2204 17.5522 27.6868C17.491 27.7208 17.4306 27.7556 17.3717 27.7904C17.2822 27.8426 17.1951 27.8964 17.1112 27.9502C17.0649 27.9795 17.0201 28.0095 16.9754 28.0396C16.9464 28.0586 16.9181 28.0783 16.8898 28.0981C16.7847 28.1709 16.685 28.2452 16.5901 28.3204C16.5532 28.3489 16.5179 28.3774 16.4833 28.4066C16.4457 28.4375 16.4088 28.4683 16.3735 28.5C16.3405 28.5284 16.3076 28.5577 16.2762 28.587C16.2715 28.5909 16.2667 28.5957 16.262 28.5996C16.2299 28.6297 16.1985 28.6589 16.1686 28.689C16.142 28.7143 16.1161 28.7404 16.091 28.7665C16.0517 28.8061 16.014 28.8464 15.9772 28.8875C15.9513 28.9152 15.9269 28.9429 15.9026 28.9714C15.8971 28.9777 15.8916 28.984 15.8861 28.9912C15.8634 29.0173 15.8414 29.0442 15.8194 29.0711C15.8186 29.0726 15.8171 29.0742 15.8163 29.0758C15.7904 29.1075 15.7653 29.1391 15.7417 29.1707C15.7237 29.1945 15.7056 29.219 15.6884 29.2435C15.6695 29.2696 15.6515 29.2957 15.6342 29.3218C15.5793 29.4017 15.5298 29.4824 15.4851 29.5631C15.4663 29.5955 15.449 29.6287 15.4317 29.6612C15.398 29.7268 15.3674 29.7933 15.3391 29.8589C15.3219 29.9 15.3054 29.9412 15.2897 29.9823C15.2803 30.0076 15.2709 30.0337 15.2622 30.0598C15.245 30.1112 15.2293 30.1627 15.2151 30.2141C15.2081 30.2402 15.2018 30.2655 15.1955 30.2916C15.1908 30.3122 15.1861 30.3327 15.1814 30.3533C15.1673 30.4189 15.1555 30.4846 15.1469 30.5495C15.1422 30.5827 15.139 30.6151 15.1359 30.6475C15.1327 30.6768 15.1304 30.7053 15.1288 30.7338C15.1288 30.7377 15.128 30.7417 15.128 30.7456C15.0276 32.4961 16.7682 34.0813 18.9452 34.3693C22.4162 34.8288 26.7709 33.3947 29.9861 27.0374C29.8692 32.33 26.8808 35.85 22.9812 37.5515C22.7505 37.652 22.8243 38 23.0754 38H24.6528C32.5766 38 39 31.5256 39 23.5387C39 22.0239 38.464 20.5582 37.4893 19.4049L22.0976 1.20847ZM31.6381 24.2404V24.0727L31.6718 24.0893L31.6381 24.2404Z" fill="#2BA84A"/>
</svg>
